<svg xmlns="http://www.w3.org/2000/svg" width="359.722" height="306.902" viewBox="0 0 359.722 306.902">
  <g id="_3599938" data-name="3599938" transform="translate(3490.19 -985.613)">
    <g id="OBJECTS" transform="translate(-3490.19 985.613)">
      <g id="Group_343" data-name="Group 343">
        <g id="Group_328" data-name="Group 328">
          <path id="Path_91" data-name="Path 91" d="M209.587,94.122c12.777,11.022,41.055,29.861,77.541,20.78,9.6-5.205-.889-18.529-4.887-22.959-9.921-10.99-26.606-23.6-40.614-31.256C212.794,44.924,177.6,66.521,209.587,94.122Z" transform="translate(-60.443 -52.302)" fill="#89cd7c" fill-rule="evenodd"/>
          <path id="Path_92" data-name="Path 92" d="M361.476,347.8s34.234-48.182-5.706-89.905c0,0,35.869-47.169,13.046-100.689s-66.841-48.985-101.892-38.1-80.7,5.446-115.747-37.189-75.808-33.566-91.29-13.6-19.561,60.773-2.444,101.593,7.332,67.123-7.332,87.077-16.3,75.507,18.752,90.817Z" transform="translate(-28.473 -51.613)" fill="#89cd7c" fill-rule="evenodd"/>
          <path id="Path_93" data-name="Path 93" d="M28.072,431.92h355.2a2.317,2.317,0,0,1,2.262,2.35h0a2.317,2.317,0,0,1-2.262,2.35h-7.638a1.289,1.289,0,0,0-1.26,1.305h0a1.284,1.284,0,0,0,1.26,1.306h2.792A1.607,1.607,0,0,1,380,440.862h0a1.607,1.607,0,0,1-1.572,1.632H33.167a1.607,1.607,0,0,1-1.572-1.632h0a1.607,1.607,0,0,1,1.572-1.632h2.2a1.289,1.289,0,0,0,1.26-1.306h0a1.289,1.289,0,0,0-1.26-1.305H28.072a2.317,2.317,0,0,1-2.262-2.35h0a2.322,2.322,0,0,1,2.262-2.35ZM29.252,442.5a1.548,1.548,0,0,0,1.508-1.566V440.8a1.543,1.543,0,0,0-1.508-1.566h0a1.543,1.543,0,0,0-1.508,1.566v.131a1.548,1.548,0,0,0,1.508,1.566Z" transform="translate(-25.81 -135.6)" fill="#06152d" fill-rule="evenodd"/>
        </g>
        <g id="Group_333" data-name="Group 333" transform="translate(179.726 10.609)">
          <path id="Path_94" data-name="Path 94" d="M364.515,413.253s7.408,6.486,10.1,7,8.567,1.028,9.823,1.754,2.407,3.761,2.546,4.324.465,2.57-1.346,2.57H352.464c-1.387,0-1.664-.775-1.664-1.9a4.567,4.567,0,0,1,.832-2.268V418.4A2.4,2.4,0,0,1,354,415.774c2.8-.179,5.858,1.42,7.661-1.517C362.459,412.959,362.81,411.947,364.515,413.253Z" transform="translate(-312.119 -141.66)" fill="#01142e" fill-rule="evenodd"/>
          <path id="Path_95" data-name="Path 95" d="M366.861,413.253s7.106,6.217,9.929,6.96a5.355,5.355,0,0,1-3.574,1.615c-1.02-.082-8.681-3.565-9.374-4.5s.033-2.856.033-2.856h0a2.026,2.026,0,0,0,.139-.22C364.8,412.959,365.156,411.947,366.861,413.253Z" transform="translate(-314.465 -141.66)" fill="#01142e" fill-rule="evenodd"/>
          <path id="Path_96" data-name="Path 96" d="M386.362,427.458a10.96,10.96,0,0,1,.612,1.6c.139.563.465,2.57-1.346,2.57H352.454c-1.387,0-1.664-.775-1.664-1.909a4.527,4.527,0,0,1,.832-2.268h34.74Z" transform="translate(-312.117 -144.386)" fill="#002049" fill-rule="evenodd"/>
          <path id="Path_97" data-name="Path 97" d="M386.126,180.015c-1.224-6.911-9.937-28.67-16.709-40.435,0,0-2.456,3.459-6.217,2.537l6,35.874C372.5,179.713,384.853,175.568,386.126,180.015Z" transform="translate(-314.402 -80.748)" fill="#d1d8e4" fill-rule="evenodd"/>
          <path id="Path_98" data-name="Path 98" d="M367.47,164.543l2.513,15.037c1.73.9,5.923.2,9.725-.049l-8.387-31.37-2.635,3.394Z" transform="translate(-315.188 -82.584)" fill="#949dae" fill-rule="evenodd"/>
          <path id="Path_99" data-name="Path 99" d="M367.462,226.73l2.219,4.593.6,7.049a52.8,52.8,0,0,1,2.872,5.05c.424,1.167,1.909,10.68,2.072,12.426s-7.555,79.393-8.616,93.369a212.624,212.624,0,0,0,.286,30.473c.139,1.363-6.429,3.688-8.828,3.884a26.962,26.962,0,0,1-6.658-.824l-.041-.008h0c-.922-.237-.987-1.4-.987-1.4l-.628-24.582h0c.073-3.655.065-13.878-.082-18.129-.155-4.463-2.268-82.11-2.268-82.11l6.168-27.756Z" transform="translate(-311.493 -107.429)" fill="#949dae" fill-rule="evenodd"/>
          <path id="Path_100" data-name="Path 100" d="M367.145,406.6c.171,3.41.367,5.711.416,6.209.139,1.363-6.429,3.688-8.828,3.884a26.963,26.963,0,0,1-6.658-.824l-.041-.008h0c-.922-.237-.987-1.4-.987-1.4L351.04,414Z" transform="translate(-312.163 -140.547)" fill="#7a8296" fill-rule="evenodd"/>
          <path id="Path_101" data-name="Path 101" d="M369.692,232.618l.571,6.829a52.778,52.778,0,0,1,2.872,5.05c.375,1.02,1.558,8.452,1.958,11.447l-13.234-4.83s-1.926-1.159-3.467,3c-1.069,2.88-6.617,28.5-9.913,43.927-.555-20.34-1.11-40.443-1.11-40.443l4.5-20.275,15.828-4.757C367.718,232.561,368.477,232.569,369.692,232.618Z" transform="translate(-311.487 -102.716)" fill="#7a8296" fill-rule="evenodd"/>
          <path id="Path_102" data-name="Path 102" d="M321.548,227.17l-1.012,3.321s-3.215,2.138-3.419,3.206-1.134,3.4-1.436,4.961,1.346,5.3.832,6.47-3.239,58.27-3.239,65.05-.2,6.486-.506,11.708h0l-2.113,58.768a2.163,2.163,0,0,0,1.868,2.439c2.2.514,10.721.13,12.238-.188a8.644,8.644,0,0,0,2.268-1.093c1.012-.873.71-15.428.914-17.664s4.65-47.264,5.866-54.835,11.537-49.108,13.356-56.483,6.07-21.156,6.07-21.156Z" transform="translate(-304.724 -107.51)" fill="#949dae" fill-rule="evenodd"/>
          <path id="Path_103" data-name="Path 103" d="M310.713,411.493l-.057,1.558a2.164,2.164,0,0,0,1.868,2.44c2.2.514,10.721.13,12.238-.188a8.644,8.644,0,0,0,2.268-1.093c.62-.539.751-6.242.8-11.08Z" transform="translate(-304.724 -139.908)" fill="#7a8296" fill-rule="evenodd"/>
          <path id="Path_104" data-name="Path 104" d="M316.8,239.562c-.024.122-.057.245-.073.359-.3,1.55,1.346,5.3.832,6.47-.188.441-.7,8.828-1.256,19.475,10.092-6.47,24.476-15.608,26.72-16.595,3.5-1.542,4.006.383,4.006.383l1.379,3.68c1.322-5.189,3.622-12.94,4.92-17.248-2.758-.424-6.821-1.159-8.1-1.95C343.983,233.386,328.546,236.8,316.8,239.562Z" transform="translate(-305.766 -102.027)" fill="#7a8296" fill-rule="evenodd"/>
          <path id="Path_105" data-name="Path 105" d="M369.57,237.817a84.46,84.46,0,0,1-26.581,1.95c-14.27-1.338,10.574-9.856,17.346-7.49S369.57,237.817,369.57,237.817Z" transform="translate(-309.88 -100.962)" fill="#122344" fill-rule="evenodd"/>
          <path id="Path_106" data-name="Path 106" d="M331,134.411l-16.652,5.605s4.487,6.731,2.325,25.978c0,0,4.708,22.681,4.708,25.716s-2.546,16.114-2.546,18.064c0,1.811,20.756,14.286,41.381,7.033,6.2-2.178,4.61-5.417,4.218-7.221-2.8-13.021-2.448-28.727-3.043-32.488-.653-4.112,3.239-11.447,3.239-11.447l-4.112-26.606-11.528-4.765Z" transform="translate(-305.407 -80.175)" fill="#122344" fill-rule="evenodd"/>
          <path id="Path_107" data-name="Path 107" d="M350.809,147.052l6.829,49.165-3.492,10.06-7.906-11.088,1.183-48.137,2-1.052Z" transform="translate(-311.279 -82.507)" fill="#cc3129" fill-rule="evenodd"/>
          <path id="Path_108" data-name="Path 108" d="M351.089,141.517l-.767,3.851h-3.386l-3.386-4.822,3.492-3.7s2.774,1.428,2.921,2.023A27.308,27.308,0,0,0,351.089,141.517Z" transform="translate(-310.784 -79.776)" fill="#9d2529" fill-rule="evenodd"/>
          <path id="Path_109" data-name="Path 109" d="M336.59,119.68h14.466v16.032H345.3l-8.714-3.394Z" transform="translate(-309.502 -76.004)" fill="#d77f68" fill-rule="evenodd"/>
          <path id="Path_110" data-name="Path 110" d="M336.253,132.48v.718l10.443,4.871-4.626,6.119-7.31-10.109Z" transform="translate(-309.165 -78.831)" fill="#06152d" fill-rule="evenodd"/>
          <path id="Path_111" data-name="Path 111" d="M349.39,138.063l4.022-4.74v-.873l2.04,1.493-1.934,10.125Z" transform="translate(-311.859 -78.823)" fill="#06152d" fill-rule="evenodd"/>
          <g id="Group_329" data-name="Group 329" transform="translate(16.423 32.927)">
            <path id="Path_112" data-name="Path 112" d="M362.872,103.75c.106.016.22.033.326.057h0a4.425,4.425,0,1,1-3.7.865c-.122,1.305.073,2.921,1.738,3.1l-.033-2.554A1.534,1.534,0,0,1,362.872,103.75Z" transform="translate(-329.836 -103.748)" fill="#d77f68" fill-rule="evenodd"/>
            <path id="Path_113" data-name="Path 113" d="M327.387,103.75l-.326.049h0a4.421,4.421,0,1,0,3.688.914c.106,1.305-.114,2.921-1.787,3.076l.065-2.554A1.513,1.513,0,0,0,327.387,103.75Z" transform="translate(-323.518 -103.748)" fill="#d77f68" fill-rule="evenodd"/>
          </g>
          <path id="Path_114" data-name="Path 114" d="M342.681,120.962c-8.265,0-15.151-10.19-15.151-18.243V92.031A15.2,15.2,0,0,1,342.681,76.88h0a15.2,15.2,0,0,1,15.151,15.151V102.5C357.832,111.318,351.819,120.962,342.681,120.962Z" transform="translate(-307.834 -65.874)" fill="#e6ad83" fill-rule="evenodd"/>
          <g id="Group_330" data-name="Group 330" transform="translate(24.567 28.391)">
            <path id="Path_115" data-name="Path 115" d="M338.746,98.638a.635.635,0,1,1-.522,1.159,4.164,4.164,0,0,0-3.745.245.64.64,0,1,1-.677-1.085A5.494,5.494,0,0,1,338.746,98.638Z" transform="translate(-333.5 -98.189)" fill="#06152d" fill-rule="evenodd"/>
            <path id="Path_116" data-name="Path 116" d="M357.1,98.943a.636.636,0,0,1-.62,1.11,4.168,4.168,0,0,0-3.753-.065.635.635,0,0,1-.587-1.126A5.468,5.468,0,0,1,357.1,98.943Z" transform="translate(-336.87 -98.208)" fill="#06152d" fill-rule="evenodd"/>
          </g>
          <path id="Path_117" data-name="Path 117" d="M346.25,109.639a13.6,13.6,0,0,1,.734,2.391c-.057.326-1.738.628-2.178.2-.294-.286.073-1.534.392-2.382C345.63,108.7,345.866,108.611,346.25,109.639Z" transform="translate(-310.995 -71.774)" fill="#ebbf9e" fill-rule="evenodd"/>
          <g id="Group_331" data-name="Group 331" transform="translate(31.665 43.339)">
            <path id="Path_118" data-name="Path 118" d="M348.564,117.1a3.182,3.182,0,1,1-6.364,0,.585.585,0,0,1,.587-.587h5.2A.583.583,0,0,1,348.564,117.1Z" transform="translate(-342.2 -116.51)" fill="#06152d" fill-rule="evenodd"/>
            <path id="Path_119" data-name="Path 119" d="M343.308,116.51h4.553v.538a.517.517,0,0,1-.514.514h-3.533a.517.517,0,0,1-.514-.514v-.538Z" transform="translate(-342.402 -116.51)" fill="#fff" fill-rule="evenodd"/>
            <path id="Path_120" data-name="Path 120" d="M347.888,119.7a3.171,3.171,0,0,1-2.309.987,3.2,3.2,0,0,1-2.309-.987,3.194,3.194,0,0,1,4.618,0Z" transform="translate(-342.397 -116.915)" fill="#d26070" fill-rule="evenodd"/>
          </g>
          <g id="Group_332" data-name="Group 332" transform="translate(25.611 33.687)">
            <path id="Path_121" data-name="Path 121" d="M336.607,108.335a1.828,1.828,0,1,0-1.828-1.828A1.83,1.83,0,0,0,336.607,108.335Z" transform="translate(-334.78 -104.68)" fill="#06152d" fill-rule="evenodd"/>
            <path id="Path_122" data-name="Path 122" d="M354.768,108.335a1.828,1.828,0,1,0-1.828-1.828A1.83,1.83,0,0,0,354.768,108.335Z" transform="translate(-338.124 -104.68)" fill="#06152d" fill-rule="evenodd"/>
          </g>
          <path id="Path_123" data-name="Path 123" d="M346.166,222.5c0,3.7-2.056,4.512-2.056,4.512-2.358,1.852-29.045,10.158-29.763,9.75s-1.077-2.57-1.077-2.57c2.032-13.984,2.325-26.671,5.287-40.394a1.434,1.434,0,0,1,.31-2.26c0-.922-2.619-24.648-2.619-24.648,2.823-16.44-2.1-26.769-2.1-26.769s12.263-5.14,12.875-5.189a1.868,1.868,0,0,1,1.191.457s8.5,30.139,8.909,32.186.359,14.914.571,17.174S346.166,222.5,346.166,222.5Z" transform="translate(-305.208 -80.65)" fill="#d1d8e4" fill-rule="evenodd"/>
          <path id="Path_124" data-name="Path 124" d="M335.8,154.65c2.154,7.694,4.324,15.559,4.528,16.57.277,1.411.351,7.922.424,12.6h-.506l-9.611-15.983.922-12.777,2.619-.383Z" transform="translate(-308.407 -84.016)" fill="#a9b0c2" fill-rule="evenodd"/>
          <path id="Path_125" data-name="Path 125" d="M326.2,136.108a32.56,32.56,0,0,1,3.1-1.159,1.868,1.868,0,0,1,1.191.457s3.818,13.544,6.462,23.089L325.64,148.273Z" transform="translate(-307.486 -79.502)" fill="#949dae" fill-rule="evenodd"/>
          <path id="Path_126" data-name="Path 126" d="M319.42,170.668,321.7,157.1l8.885,27.112-9.733,2.366Z" transform="translate(-306.341 -84.574)" fill="#949dae" fill-rule="evenodd"/>
          <path id="Path_127" data-name="Path 127" d="M316.93,218.957c.571-4.6,1.273-9.228,2.3-13.976a1.434,1.434,0,0,1,.31-2.26c0-.269-.22-2.448-.53-5.4l19.344-1.73q.012.2.024.343c.082.848,1.289,6.38,2.774,12.956Z" transform="translate(-305.882 -93.152)" fill="#949dae" fill-rule="evenodd"/>
          <path id="Path_128" data-name="Path 128" d="M357.6,134.586a3.206,3.206,0,0,1,.832-.049c.31.049,9.717,3.981,9.946,4.1s.432.2.849,2.309,3.467,21.988,3.565,22.738a44.517,44.517,0,0,1,.53,5.662c.041,5.776-2.546,14.743-2.546,18.414,0,5.067,1.265,10.7,1.673,15.273.016.139.033.277.041.416.408,5.2,7.253,18.349,6.788,27.005-.073,1.33-2.774,2.872-3.492,3.443s-1.077.563-2.619-.106-9.342-8-9.342-8a6.845,6.845,0,0,1-1.436-4.512c.106-2.774.31-43,.31-45.061s1.126-8.159,1.281-9.391-5.621-31.917-5.621-31.917Z" transform="translate(-313.371 -80.511)" fill="#d1d8e4" fill-rule="evenodd"/>
          <path id="Path_129" data-name="Path 129" d="M363.525,183.77c.008-2.129.016-3.549.016-3.892,0-2.056,1.126-8.159,1.281-9.391.073-.6-1.289-8.371-2.692-16.089l.946-.008L368.7,167.4l-4.389,16.375h-.783Z" transform="translate(-314.205 -83.96)" fill="#a9b0c2" fill-rule="evenodd"/>
          <path id="Path_130" data-name="Path 130" d="M357.6,134.586a3.206,3.206,0,0,1,.832-.049c.114.016,1.452.563,3.117,1.24l3.394,8.322-2.415,13.462c-1.664-9.432-4.161-22.665-4.161-22.665Z" transform="translate(-313.371 -79.401)" fill="#949dae" fill-rule="evenodd"/>
          <path id="Path_131" data-name="Path 131" d="M372.692,192.77a37.437,37.437,0,0,0-.783,5.727,48.712,48.712,0,0,0,.424,5.9l-8.583-.832c.024-3.7.041-7.188.049-9.995Z" transform="translate(-314.503 -92.303)" fill="#949dae" fill-rule="evenodd"/>
          <path id="Path_132" data-name="Path 132" d="M323.472,416.507s-.286-3.867-2.578-3.867h-4.487c-1.518,0-3,2.366-3.418,4.1a2.629,2.629,0,0,0-1.8,1.893c-.318,1.5-1.02,7.1-1.126,7.653s-.5,2.6,1.8,2.6h16.375c1.444,0,1.273-1.069,1.273-1.681a9.774,9.774,0,0,0-1.093-4.063C327.641,421.974,323.472,416.507,323.472,416.507Z" transform="translate(-304.6 -141.659)" fill="#01142e" fill-rule="evenodd"/>
          <path id="Path_133" data-name="Path 133" d="M324.154,416.507s-.286-3.867-2.578-3.867h-4.487c-1.517,0-3,2.366-3.418,4.1l1.844,3.9a3.422,3.422,0,0,0,2.423.873h5.181s1.363-.269,1.3-1.526S324.154,416.507,324.154,416.507Z" transform="translate(-305.282 -141.659)" fill="#01142e" fill-rule="evenodd"/>
          <path id="Path_134" data-name="Path 134" d="M310.151,428.71c-.041.269-.065.465-.082.547-.106.555-.5,2.6,1.8,2.6h16.375c1.444,0,1.273-1.069,1.273-1.681a9.356,9.356,0,0,0-.179-1.469H310.151Z" transform="translate(-304.602 -144.618)" fill="#002049" fill-rule="evenodd"/>
          <path id="Path_135" data-name="Path 135" d="M327.311,182.414l30.343-4.022,5.548,10-41,10.043s-9.7,3-12.312-4.463-6.47-38.877-6.47-38.877a13.766,13.766,0,0,1,8.909-13.788,13.425,13.425,0,0,1,5.711,9.015c1.232,6.47,5.238,30.946,5.238,30.946A2.74,2.74,0,0,1,327.311,182.414Z" transform="translate(-303.389 -81.383)" fill="#d1d8e4" fill-rule="evenodd"/>
          <path id="Path_136" data-name="Path 136" d="M331.854,191.408l9.415-1.248,23.391,1.656,3.084,5.572-25.178,6.168L328.06,191.881l3.337-1.11A4.139,4.139,0,0,1,331.854,191.408Z" transform="translate(-307.932 -91.75)" fill="#949dae" fill-rule="evenodd"/>
          <path id="Path_137" data-name="Path 137" d="M363.573,103.562l-1.46-5.931s-4.716-3.459-3.043-8.273,2.007-4.34,2.007-4.34,6.282,2.831,3.492,15.591Z" transform="translate(-313.575 -67.37)" fill="#06152d" fill-rule="evenodd"/>
          <path id="Path_138" data-name="Path 138" d="M327.144,103.562l1.46-5.931s4.716-3.459,3.043-8.273-2.007-4.34-2.007-4.34-6.282,2.831-3.492,15.591Z" transform="translate(-307.448 -67.37)" fill="#06152d" fill-rule="evenodd"/>
          <path id="Path_139" data-name="Path 139" d="M326.294,91.252s-5.238,1.077-5.466-2.782,3.312-7,3.312-7-1.077-6.821.849-10.15,5.931-.269,5.931-.269.612-3.769,4.308-2.872c0,0,.694-6.91,8.314-4.128s7.155,7.18,7.155,7.18,4.544-1.436,4.691,4.308c0,0,3.386.718,5,5.834s-2.056,11.137-2.921,11.765-3.467-1.615-4.234-4.128c0,0-1.305-.318-1.077-2.472,0,0-6.47,4-8.934-.759,0,0-2.774,1.795-4.006-.718,0,0-6.772,7.269-10.549,2.154C324.907,82.1,326.294,91.252,326.294,91.252Z" transform="translate(-306.598 -63.391)" fill="#06152d" fill-rule="evenodd"/>
          <path id="Path_140" data-name="Path 140" d="M349.744,187.57l-10.81.147s-7.2-1.387-8.24-1.387a12.408,12.408,0,0,0-3.353,1.093l.587,3.761s5.654,2.774,6.968,3.427a4.8,4.8,0,0,0,4.422.2l10.313,1.428Z" transform="translate(-307.799 -90.835)" fill="#ebbf9e" fill-rule="evenodd"/>
          <path id="Path_141" data-name="Path 141" d="M353.548,187.85l-1.363.016L348,195.748l5.434.751Z" transform="translate(-311.603 -91.153)" fill="#d7766d" fill-rule="evenodd"/>
          <path id="Path_142" data-name="Path 142" d="M354.649,186.553l-.979,9.954a1.184,1.184,0,0,0,.9,1.183c.971.31,23.913-.2,23.913-.2s6.054-1.338,6.054-7.6a9.668,9.668,0,0,0-.171-1.721,5.866,5.866,0,0,0-5.76-4.259l-10.451,1.314-12.573.734C355.6,185.966,354.747,186,354.649,186.553Z" transform="translate(-312.647 -90.36)" fill="#d1d8e4" fill-rule="evenodd"/>
        </g>
        <g id="Group_334" data-name="Group 334" transform="translate(75.521 9.781)">
          <path id="Path_143" data-name="Path 143" d="M131.449,414.012S124,420.58,121.3,421.1s-8.624,1.044-9.872,1.77c-1.273.726-2.423,3.786-2.554,4.365-.147.579-.465,2.611,1.346,2.611h33.353c1.4,0,1.681-.783,1.681-1.942a4.509,4.509,0,0,0-.84-2.276V419.21a2.428,2.428,0,0,0-2.374-2.652c-2.815-.188-5.9,1.436-7.71-1.534-.808-1.314-1.167-2.317-2.88-1.012Z" transform="translate(-82.603 -140.971)" fill="#111" fill-rule="evenodd"/>
          <path id="Path_144" data-name="Path 144" d="M134.316,414.013s-7.147,6.29-9.986,7.057a5.32,5.32,0,0,0,3.6,1.624c1.028-.073,8.738-3.606,9.423-4.553.71-.93-.016-2.872-.016-2.872h0a1.146,1.146,0,0,1-.147-.22c-.8-1.338-1.159-2.342-2.872-1.036Z" transform="translate(-85.471 -140.971)" fill="#111" fill-rule="evenodd"/>
          <path id="Path_145" data-name="Path 145" d="M109.475,428.4a10.328,10.328,0,0,0-.612,1.607c-.147.579-.465,2.611,1.346,2.611h33.353c1.4,0,1.681-.783,1.681-1.942a4.509,4.509,0,0,0-.84-2.276Z" transform="translate(-82.602 -143.732)" fill="#1c1c1c" fill-rule="evenodd"/>
          <path id="Path_146" data-name="Path 146" d="M125.9,137.22s-7.8,2.162-8.958,6.046a209.853,209.853,0,0,0-5.858,24.688c-.693,3.419-7.987-9.35-11.308-16.35A79.828,79.828,0,0,1,87.4,154.476c-2.725.318,10.623,32.57,17.933,38.053,7.131,5.36,15.436-1.028,22.787-26.859,0,.008,4.65-16.375-2.219-28.45Z" transform="translate(-78.605 -79.625)" fill="#303030" fill-rule="evenodd"/>
          <path id="Path_147" data-name="Path 147" d="M100.606,156.573c-.3-.6-.579-1.175-.84-1.713a79.832,79.832,0,0,1-12.377,2.872c-2.725.318,10.623,32.57,17.933,38.053,6.927,5.205,14.971-.693,22.176-24.713-1.1-3.492-1.885-5.858-1.885-5.858s-4.438,14.523-7.9,20.944-10.076,6.217-14.523.506c-4.438-5.727-14.816-24.3-10.859-25.1a13.169,13.169,0,0,0,8.273-4.985Z" transform="translate(-78.603 -83.453)" fill="#232323" fill-rule="evenodd"/>
          <path id="Path_148" data-name="Path 148" d="M130.992,225.31l-2.26,4.65-.6,7.131a51.756,51.756,0,0,0-2.913,5.116c-.432,1.175,1.232,10.394,1.061,12.165-.147,1.77,4.5,80.723,5.564,94.846a215.464,215.464,0,0,1-.277,30.832c-.147,1.379,6.494,3.737,8.918,3.941a27.287,27.287,0,0,0,6.739-.84h.057c.93-.245.987-1.42.987-1.42l.653-24.86h0c-.073-3.712-.073-14.058.073-18.349.147-4.52,2.293-83.073,2.293-83.073l-6.233-28.091Z" transform="translate(-85.622 -106.339)" fill="#1c1c1c" fill-rule="evenodd"/>
          <path id="Path_149" data-name="Path 149" d="M143.75,388.446c.057,0,.114.016.171.016a27.283,27.283,0,0,0,6.739-.84h.057c.93-.245.987-1.42.987-1.42l.653-24.86h0c-.073-3.712-.073-14.058.073-18.349.114-3.451,1.4-50.168,2-71.985L145.4,249.6c-2.015,4.2,2.113,11.031,1.681,21.523-1.044,25.716.392,71.316-.22,100.051-.2,8.534-.7,13.576-3.109,17.272Z" transform="translate(-89.047 -110.811)" fill="#111" fill-rule="evenodd"/>
          <path id="Path_150" data-name="Path 150" d="M173.616,225.75l1.028,3.361s3.247,2.162,3.451,3.247,1.142,3.451,1.452,5.018,3.769,7.376,4.275,8.55c.522,1.175-2.627,18.235-2.627,25.1,0,5.075,1.566,50.283,1.289,50.56l2.146,59.445a2.183,2.183,0,0,1-1.885,2.464c-2.236.522-10.843.147-12.393-.188a9.29,9.29,0,0,1-2.293-1.1c-1.028-.881-.71-15.624-.914-17.884s-4.7-47.819-5.931-55.471c-.693-4.332-4.332-19.6-7.694-33.427-2.594-10.672-7-21.555-7.8-24.819-1.852-7.449-4.161-20.307-4.161-20.307Z" transform="translate(-88.644 -106.42)" fill="#1c1c1c" fill-rule="evenodd"/>
          <path id="Path_151" data-name="Path 151" d="M127.69,236.513a85.828,85.828,0,0,0,26.891,1.983c14.425-1.346-10.7-9.97-17.541-7.58-6.87,2.391-9.35,5.6-9.35,5.6Z" transform="translate(-86.09 -99.834)" fill="#ff9f21" fill-rule="evenodd"/>
          <path id="Path_152" data-name="Path 152" d="M162.84,131.9l16.856,5.67s-4.536,6.813-2.35,26.279c0,0-4.757,22.959-4.757,26.018s2.578,16.293,2.578,18.276c0,1.958-26.916,14.931-49.23,3.973a3.062,3.062,0,0,1-.538-1.844c-.114-1.42,15.363-25.5,16.016-29.657S128.835,163.5,128.835,163.5L133,136.584l11.667-4.814Z" transform="translate(-85.668 -78.776)" fill="#fff" fill-rule="evenodd"/>
          <path id="Path_153" data-name="Path 153" d="M151.255,131.77h.131v.783l4.071,4.8,10.557-4.928v-.555h.171l1.346,1.436-7.2,10.827-4.871-6.78-5.956,5.679-.171-9.856Z" transform="translate(-90.074 -77.874)" fill="#d0d9e6" fill-rule="evenodd"/>
          <path id="Path_154" data-name="Path 154" d="M152.648,143.361l-7.318,37.008,2.856,24,10.451-13.495-2.578-47.517-2.015-1.061Z" transform="translate(-89.338 -80.873)" fill="#ff3324" fill-rule="evenodd"/>
          <path id="Path_155" data-name="Path 155" d="M151.46,137.913l1.9,5.279,3.973.057,2.2-5.132-3.549-3.737c-2.643,1.363-2.684,2.39-4.528,3.533Z" transform="translate(-90.466 -78.423)" fill="#ba2b27" fill-rule="evenodd"/>
          <path id="Path_156" data-name="Path 156" d="M168.253,110.82l-19.263,1.77.579,16.424,7.294,3.068,7.335-3.826Z" transform="translate(-90.012 -71.295)" fill="#f2856e" fill-rule="evenodd"/>
          <path id="Path_157" data-name="Path 157" d="M155,134.912l-5.483-7.6-1.126,3.19.808,10.974,5.8-6.568,4.683,6.192,7.392-10.231-1.787-4.683Z" transform="translate(-89.901 -76.653)" fill="#fff" fill-rule="evenodd"/>
          <path id="Path_158" data-name="Path 158" d="M193.982,236.583a11.947,11.947,0,0,1-4.438,10.957s-3.174-12.246-2.187-15.494c.987-3.263,2.276-2.782,2.276-2.782Z" transform="translate(-97.041 -99.779)" fill="#fcb187" fill-rule="evenodd"/>
          <path id="Path_159" data-name="Path 159" d="M189.1,232.01l-.9,2.766s1.885,4.944,4.251,6.323A16.411,16.411,0,0,0,195,242.478l2.276-4.83Z" transform="translate(-97.231 -100.219)" fill="#d0d9e6" fill-rule="evenodd"/>
          <path id="Path_160" data-name="Path 160" d="M191.092,138.89s6.16,1.346,8.134,7.245c1.958,5.915,12.116,40.092,12.116,40.092-3.206,15.624-4.944,21.392-11.479,36.323-2.741,5.132-10.916-7.057-11.667-7.71h0l8.077-23.383-7.539-26.279c.008-.008-4.5-14.229,2.358-26.288Z" transform="translate(-97.063 -80.463)" fill="#303030" fill-rule="evenodd"/>
          <path id="Path_161" data-name="Path 161" d="M183.883,235.389c.71-.408-3-18.814-2.2-21.352a36.685,36.685,0,0,1,1.4-6.013l-3.476-16.105a1.436,1.436,0,0,0-.3-2.276c0-.93,2.635-24.933,2.635-24.933-2.856-16.628,2.129-27.079,2.129-27.079-5.6-2.35-10.321-4.961-16.309-5.581-2.611,6.176-16.8,42.328-17.395,48.749-.131,1.436-.726,17.133-1.175,28.727-.2,5.54.424,9.815,3.345,13.364,8.991,10.99,29.576,13.5,31.346,12.5Z" transform="translate(-90.042 -79.187)" fill="#303030" fill-rule="evenodd"/>
          <path id="Path_162" data-name="Path 162" d="M184.638,244.308a23.673,23.673,0,0,0,4.814,1.134c.71-.408-3-18.814-2.2-21.352a36.686,36.686,0,0,1,1.4-6.013l-3.476-16.105a1.436,1.436,0,0,0-.3-2.276c0-.277.245-2.652.579-5.842-1.885-4.2-3.288-7.2-3.288-7.2-2.668,13.739-2.766,13.641-2.766,13.641s1.77,5.523,1.175,8.1c-.579,2.554,2.766,21.914,3.859,29.527a26.9,26.9,0,0,1,.2,6.388Z" transform="translate(-95.611 -91.059)" fill="#232323" fill-rule="evenodd"/>
          <path id="Path_163" data-name="Path 163" d="M185.413,194.971c0-.93,2.635-24.933,2.635-24.933a60.358,60.358,0,0,1-.857-9.048l-4.912,21.572Z" transform="translate(-96.141 -84.711)" fill="#232323" fill-rule="evenodd"/>
          <path id="Path_164" data-name="Path 164" d="M143.725,131.727c.041-.3-11.161,4.275-11.406,4.406-.22.131-.449.2-.857,2.333s-3.508,22.249-3.606,23.016a15.562,15.562,0,0,0,.277,4.871,56.157,56.157,0,0,1,.84,6.755c-.073.432.22,12.915-1.028,21.759-1.379,9.856-3.9,20.438-6.666,34.153-1.55,7.71,17.8-1.534,21.555-8.265,3.361-6.086,1.738-10.06,2.072-13.829.987-11.512,2.35-26.337,2.219-27.642-.514-5.213-3.631-46.138-3.4-47.557Z" transform="translate(-84.893 -79.04)" fill="#303030" fill-rule="evenodd"/>
          <path id="Path_165" data-name="Path 165" d="M175.576,417.316s.3-3.916,2.8-3.916h4.871c1.64,0,3.264,2.407,3.712,4.161a2.755,2.755,0,0,1,1.958,1.925c.359,1.509,1.118,7.163,1.232,7.726s.538,2.652-1.958,2.652h-17.8c-1.566,0-1.379-1.085-1.379-1.7a9.517,9.517,0,0,1,1.191-4.128c.84-1.2,5.377-6.723,5.377-6.723Z" transform="translate(-93.696 -140.971)" fill="#111" fill-rule="evenodd"/>
          <path id="Path_166" data-name="Path 166" d="M176.991,417.316s.3-3.916,2.8-3.916h4.871c1.64,0,3.264,2.407,3.712,4.161l-2,3.941a3.85,3.85,0,0,1-2.627.9h-5.638s-1.477-.277-1.42-1.55c.073-1.273.3-3.533.3-3.533Z" transform="translate(-95.111 -140.971)" fill="#111" fill-rule="evenodd"/>
          <path id="Path_167" data-name="Path 167" d="M190.058,429.66c.041.277.073.465.09.539.114.563.538,2.652-1.958,2.652h-17.8c-1.566,0-1.379-1.085-1.379-1.7a9.53,9.53,0,0,1,.2-1.493h20.846Z" transform="translate(-93.696 -143.964)" fill="#1c1c1c" fill-rule="evenodd"/>
          <path id="Path_168" data-name="Path 168" d="M87,153.762c3.867.987,5.842,1.232,8.607-1.289s1.379-.392,3,1.885c2.537,3.525-5.842,6.233-9.725,5.279Z" transform="translate(-78.598 -82.198)" fill="#d0d9e6" fill-rule="evenodd"/>
          <path id="Path_169" data-name="Path 169" d="M81.685,144.879c-3.957-7.318-6.144-10.884-4.349-11.071,1.77-.2,4.145,4.234,4.145,4.234s-2.766-7.294-.987-7.506c1.77-.188,4.047,6.927,4.047,6.927s-2-5.858-1.868-8c.057-.669,1.044-1.118,1.42-.71,1.607,1.681,3.508,7.612,3.508,7.612s-1.925-5.377-1.795-7.424c.016-.522.506-.881.8-.8,1.493.3,3.655,8.232,3.655,8.232l4.145,6.323-4.234,4.65Z" transform="translate(-76.702 -77.122)" fill="#fcb187" fill-rule="evenodd"/>
          <path id="Path_170" data-name="Path 170" d="M82.24,145.782c3.7,6.568,4.145,6.8,6.1,7.376s6.927-.694,8.656-5.075c1.713-4.365,2.872-8.175,3.786-9.913.93-1.713-1.028-1.828-2.407-.335a57.351,57.351,0,0,0-3.81,5.189s-7.718-2.9-12.328,2.758Z" transform="translate(-77.721 -79.038)" fill="#fcb187" fill-rule="evenodd"/>
          <path id="Path_171" data-name="Path 171" d="M84.23,148.834c2.276,3.826,2.856,4.047,4.479,4.536,1.958.579,6.927-.694,8.656-5.075,1.713-4.365,2.872-8.175,3.786-9.913a1.929,1.929,0,0,0,.188-.432.281.281,0,0,1-.147.057c-.6.147-2.856,6.176-3.941,8.55-1.1,2.374-4.854,4.683-7.114,4.683-1.877,0-4.006-.057-5.907-2.407Z" transform="translate(-78.088 -79.287)" fill="#f2856e" fill-rule="evenodd"/>
          <path id="Path_172" data-name="Path 172" d="M144.548,132.671l-7.318,5.042,6.233,3.149-5.931,5.246,10.916,30.31,1.085-.873-3.011-44.066Z" transform="translate(-87.846 -78.152)" fill="#232323" fill-rule="evenodd"/>
          <path id="Path_173" data-name="Path 173" d="M168.166,130.88l7.8,8.289-7.9,2.374,4.438,4.463L150.78,176.52Z" transform="translate(-90.341 -78.023)" fill="#232323" fill-rule="evenodd"/>
          <path id="Path_174" data-name="Path 174" d="M152.731,196.585c.563,0,.987-.726.987-1.607s-.432-1.607-.987-1.607c-.538,0-.971.726-.971,1.607s.424,1.607.971,1.607Z" transform="translate(-90.522 -91.475)" fill="#d0d9e6" fill-rule="evenodd"/>
          <path id="Path_175" data-name="Path 175" d="M152.044,208.36c.538.041.955.767.914,1.64s-.506,1.583-1.044,1.55c-.563-.016-.955-.742-.914-1.64.041-.881.506-1.566,1.044-1.55Z" transform="translate(-90.381 -94.804)" fill="#d0d9e6" fill-rule="evenodd"/>
          <path id="Path_176" data-name="Path 176" d="M159.2,169.361c-10.06,18.8-7.074,8.249-8.869,34.1l-1.566,19.973.408-20.03c.726-24.99-1.118-16.513,8.306-34.936a.983.983,0,0,1,1.305-.408.964.964,0,0,1,.416,1.305Z" transform="translate(-89.969 -86.676)" fill="#232323" fill-rule="evenodd"/>
          <path id="Path_177" data-name="Path 177" d="M139.679,97.739c-.114.016-.228.041-.335.057h0a4.485,4.485,0,1,0,5.434,4.447,4.544,4.544,0,0,0-1.681-3.565c.114,1.322-.073,2.97-1.77,3.133l.041-2.578a1.548,1.548,0,0,0-1.689-1.493Z" transform="translate(-87.587 -68.886)" fill="#f2856e" fill-rule="evenodd"/>
          <path id="Path_178" data-name="Path 178" d="M175.574,97.74c.114.016.22.041.318.057h0a4.472,4.472,0,1,1-3.712.922c-.114,1.322.114,2.97,1.795,3.117l-.057-2.578a1.525,1.525,0,0,1,1.656-1.518Z" transform="translate(-93.979 -68.887)" fill="#f2856e" fill-rule="evenodd"/>
          <path id="Path_179" data-name="Path 179" d="M155.212,115.164c8.363,0,15.322-10.321,15.322-18.455V85.882A15.356,15.356,0,0,0,155.212,70.56h0A15.356,15.356,0,0,0,139.89,85.882V96.464c-.008,8.926,6.062,18.7,15.322,18.7Z" transform="translate(-88.336 -63.882)" fill="#fcb187" fill-rule="evenodd"/>
          <path id="Path_180" data-name="Path 180" d="M164.825,92.576a.618.618,0,0,0-.318.84.631.631,0,0,0,.84.318,4.218,4.218,0,0,1,3.786.245.644.644,0,1,0,.693-1.085,5.49,5.49,0,0,0-5-.318Z" transform="translate(-92.858 -67.851)" fill="#111"/>
          <path id="Path_181" data-name="Path 181" d="M146.238,92.872a.656.656,0,0,0-.245.873.663.663,0,0,0,.881.245,4.154,4.154,0,0,1,3.794-.057.651.651,0,0,0,.6-1.159,5.648,5.648,0,0,0-5.026.1Z" transform="translate(-89.446 -67.869)" fill="#111"/>
          <path id="Path_182" data-name="Path 182" d="M157.99,103.705a13.1,13.1,0,0,0-.751,2.407c.057.335,1.754.636,2.2.2.3-.277-.073-1.55-.392-2.407-.441-1.159-.685-1.256-1.061-.2Z" transform="translate(-91.53 -69.85)" fill="#ffc3a1" fill-rule="evenodd"/>
          <path id="Path_183" data-name="Path 183" d="M155.05,115.565a2.5,2.5,0,0,0,5.01,0,.46.46,0,0,0-.465-.465h-4.071a.462.462,0,0,0-.473.465Z" transform="translate(-91.127 -72.083)" fill="#111" fill-rule="evenodd"/>
          <path id="Path_184" data-name="Path 184" d="M160.052,113.04H156.47v.432a.4.4,0,0,0,.408.392h2.766a.4.4,0,0,0,.408-.392Z" transform="translate(-91.389 -71.704)" fill="#fff" fill-rule="evenodd"/>
          <path id="Path_185" data-name="Path 185" d="M155.9,117.593a2.56,2.56,0,0,0,1.811.767,2.531,2.531,0,0,0,1.811-.767,2.451,2.451,0,0,0-1.811-.783,2.509,2.509,0,0,0-1.811.783Z" transform="translate(-91.284 -72.398)" fill="#fa6676" fill-rule="evenodd"/>
          <path id="Path_186" data-name="Path 186" d="M139.489,97.8l1.477-6.013s4.781-3.492,3.076-8.363-2.032-4.406-2.032-4.406-6.364,2.872-3.525,15.787Z" transform="translate(-87.943 -65.437)" fill="#232323" fill-rule="evenodd"/>
          <path id="Path_187" data-name="Path 187" d="M176.34,97.8l-1.477-6.013s-4.781-3.492-3.076-8.363,2.032-4.406,2.032-4.406,6.348,2.872,3.525,15.787Z" transform="translate(-94.141 -65.437)" fill="#232323" fill-rule="evenodd"/>
          <path id="Path_188" data-name="Path 188" d="M167.317,100.219a1.4,1.4,0,0,0-.955.392,1.323,1.323,0,0,0-.392.93.524.524,0,0,1-.522.538.538.538,0,0,1-.538-.538,2.373,2.373,0,0,1,.71-1.681,2.41,2.41,0,0,1,1.7-.71,2.424,2.424,0,0,1,2.391,2.391.53.53,0,1,1-1.061,0,1.308,1.308,0,0,0-.392-.93,1.327,1.327,0,0,0-.938-.392Z" transform="translate(-92.943 -69.146)" fill="#111" fill-rule="evenodd"/>
          <path id="Path_189" data-name="Path 189" d="M148.932,100.219a1.294,1.294,0,0,0-.93.392,1.258,1.258,0,0,0-.392.93.53.53,0,1,1-1.061,0,2.307,2.307,0,0,1,.71-1.681,2.372,2.372,0,0,1,1.681-.71,2.41,2.41,0,0,1,1.7.71,2.357,2.357,0,0,1,.693,1.681.524.524,0,0,1-.522.538.538.538,0,0,1-.538-.538,1.245,1.245,0,0,0-.392-.93,1.376,1.376,0,0,0-.946-.392Z" transform="translate(-89.562 -69.146)" fill="#111" fill-rule="evenodd"/>
          <path id="Path_190" data-name="Path 190" d="M154.72,116.168c2.26,0,3.345-2.8,3.345-3.769.016-.971-.465-1.346-1.061-1.346h-4.569c-.579,0-1.085.375-1.061,1.346.008.971,1.069,3.769,3.345,3.769Zm0-8.7c7.71,0,6.552,7.686,9.464,5.173a13.947,13.947,0,0,0,4.65-9.668V94.67l1.477,1.452.449,3.843a20.948,20.948,0,0,0-.465,4.438c0,13.16-10.712,18.586-15.567,18.667-5.058-.114-15.583-5.507-15.583-18.667a20.852,20.852,0,0,0-.465-4.438l.449-3.843,1.477-1.452v8.306a14.037,14.037,0,0,0,4.642,9.668c2.9,2.521,1.77-5.173,9.472-5.173Z" transform="translate(-88.113 -68.321)" fill="#232323" fill-rule="evenodd"/>
          <path id="Path_191" data-name="Path 191" d="M158.333,96.677a11.906,11.906,0,0,1-2.945.636,11.75,11.75,0,0,1-2.945-.636,24.794,24.794,0,0,0-10.884-.22c-.857.188-.987,1.885-.147,2.056a.858.858,0,0,1,.62.538c.22.669.783,3.492,1.811,4.593,1.925,2.1,7.841,2.1,9.317-1.273a19.37,19.37,0,0,1,1.509-3.394.99.99,0,0,1,.726-.245.925.925,0,0,1,.71.245,17.51,17.51,0,0,1,1.534,3.394c1.477,3.378,7.376,3.378,9.309,1.273,1.028-1.1,1.566-3.916,1.811-4.593a.835.835,0,0,1,.612-.538c.84-.171.71-1.868-.147-2.056a24.831,24.831,0,0,0-10.892.22Zm-5.507,1.436c.538.857-.261,3.378-.8,4.259-1.379,2.219-4.683,2.293-6.853,1.175-.9-.449-1.322-1.885-1.534-2.741-.22-.873-.6-2.741.449-3.345,1.591-.946,7.824-.816,8.738.653Zm5.9,4.259c-.522-.881-1.322-3.394-.783-4.259.9-1.477,7.147-1.607,8.738-.653,1.028.6.653,2.464.449,3.345-.2.857-.653,2.293-1.534,2.741-2.187,1.118-5.491,1.044-6.87-1.175Z" transform="translate(-88.512 -68.558)" fill="#111" fill-rule="evenodd"/>
          <path id="Path_192" data-name="Path 192" d="M167.151,80.4c7.392,7.857,8.975-7.261-.506-13.421-7.743-5.042-21.107-1.452-21.107-1.452,6.16-6.723-13.323-2.725-9.407,12.279,1.55,5.956,7.424,10.6,16.554,7.057,9.105-3.565,12.377.147,13.217.171.816.008,1.542-2.023,1.248-4.634Z" transform="translate(-87.547 -62.375)" fill="#303030" fill-rule="evenodd"/>
          <path id="Path_193" data-name="Path 193" d="M95.3,144.188c.131-.22-.465-1.1-.824-1.248-2.839.742-6.364,2.668-7.147,5.727-.016.073-.041.114-.041.131.506-1.738,3.133-3.655,5.32-4.422a6.25,6.25,0,0,1,2.692-.188Z" transform="translate(-78.651 -80.299)" fill="#f2856e" fill-rule="evenodd"/>
          <path id="Path_194" data-name="Path 194" d="M91.06,139.384c.318-.539-1.868-.971-4-.318a7.281,7.281,0,0,0-4.912,5.246c-.016.073-.041.114-.041.131.563-1.9,3.419-3.973,5.8-4.83a8,8,0,0,1,3.149-.228Z" transform="translate(-77.698 -79.363)" fill="#f2856e" fill-rule="evenodd"/>
        </g>
      </g>
    </g>
  </g>
</svg>
