<svg id="garden" xmlns="http://www.w3.org/2000/svg" width="74" height="23.678" viewBox="0 0 74 23.678">
  <g id="water" transform="translate(0 18.264)">
    <path id="Path_3" data-name="Path 3" d="M3.919,390.713a1.71,1.71,0,0,1-3.419,0A13.158,13.158,0,0,1,2.061,387.1a.17.17,0,0,1,.3,0,13.158,13.158,0,0,1,1.561,3.617Zm0,0" transform="translate(-0.5 -387.009)" fill="#a7e8f1"/>
    <path id="Path_4" data-name="Path 4" d="M7.59,387.1a.17.17,0,0,0-.3,0c-.046.083-.1.183-.164.3a8.227,8.227,0,0,1,.977,2.534,1.711,1.711,0,0,1-2.137,1.656,1.709,1.709,0,0,0,3.182-.868A13.157,13.157,0,0,0,7.59,387.1Zm0,0" transform="translate(-5.732 -387.009)" fill="#6bdae8"/>
  </g>
  <g id="Pipe" transform="translate(2.141 12.798)">
    <path id="Path_1" data-name="Path 1" d="M35.866,246.166l-8.672.578a1.322,1.322,0,0,1-.749-.174l-1.62-.935a.423.423,0,0,0-.634.366v3.556a.422.422,0,0,0,.634.366l1.621-.935a1.322,1.322,0,0,1,.749-.174l8.672.578Zm0,0" transform="translate(-24.191 -245.577)" fill="#00b965"/>
    <path id="Path_2" data-name="Path 2" d="M32.595,264.2l-2.249.15.718.725a.493.493,0,0,1-.4.838l-4.657-.432a1.322,1.322,0,0,0-.749.174l-1.072.619v1.1a.423.423,0,0,0,.634.366l1.62-.936a1.322,1.322,0,0,1,.749-.174l8.357.557Zm0,0" transform="translate(-24.19 -263.396)" fill="#00a855"/>
  </g>
  <g id="handle" transform="translate(12.388 2)">
    <path id="Path_5" data-name="Path 5" d="M287.593,1.018,286.5,2.11l1.268,1.267,1.092-1.092a1.684,1.684,0,0,1,2.875,1.191V7.346L293.5,9.107h.031V3.476a3.477,3.477,0,0,0-5.936-2.459Zm0,0" transform="translate(-286.5 -0.001)" fill="#00b965"/>
    <path id="Path_6" data-name="Path 6" d="M391.564,3.835a3.455,3.455,0,0,0-1.525-.889,3.478,3.478,0,0,1,1.72,3v5.186l.792.792h.031V6.293a3.453,3.453,0,0,0-1.018-2.459Zm0,0" transform="translate(-385.554 -2.818)" fill="#00a855"/>
  </g>
  <g id="body" transform="translate(5.183 3.347)">
    <path id="Path_7" data-name="Path 7" d="M134.708,39.88,129,45.592a.953.953,0,0,1-1.348,0l-7.19-7.19a.981.981,0,0,1,0-1.388l5.692-5.692a.953.953,0,0,1,1.348,0l7.211,7.211a.953.953,0,0,1,0,1.347Zm0,0" transform="translate(-120.17 -31.043)" fill="#00b965"/>
    <path id="Path_8" data-name="Path 8" d="M229.522,31.322l-1.3,1.3,6.884,6.884a1.1,1.1,0,0,1,0,1.562L230.8,45.373l.22.22a.953.953,0,0,0,1.348,0l5.712-5.712a.953.953,0,0,0,0-1.348l-7.211-7.211a.953.953,0,0,0-1.348,0Zm0,0" transform="translate(-223.543 -31.043)" fill="#00a855"/>
  </g>
  <g id="leaft" transform="translate(9.447 7.215)">
    <path id="Path_10" data-name="Path 10" d="M218.8,134.414a.18.18,0,0,0-.187.187.043.043,0,0,1,0,0,3.766,3.766,0,0,1,2.154.949,4.079,4.079,0,0,1,.989,2.618c.191.025.353.036.468.04a.18.18,0,0,0,.187-.187,3.4,3.4,0,0,0-3.611-3.611Zm0,0" transform="translate(-218.617 -134.414)" fill="#6fd6a2"/>
    <path id="Path_11" data-name="Path 11" d="M260.094,177.466a.247.247,0,0,1-.175-.073l-2.719-2.719a.248.248,0,0,1,.351-.351l2.719,2.719a.248.248,0,0,1-.175.423Zm0,0" transform="translate(-255.854 -172.934)" fill="#6fd6a2"/>
    <path id="Path_9" data-name="Path 9" d="M221.427,135.4a4.081,4.081,0,0,1,.989,2.622.18.18,0,0,1-.187.187,3.4,3.4,0,0,1-3.611-3.611.18.18,0,0,1,.187-.187A4.081,4.081,0,0,1,221.427,135.4Zm0,0" transform="translate(-218.617 -134.414)" fill="#92dfb7"/>
  </g>
  <text id="Modalin" transform="translate(24 15)" font-size="12" font-family="SegoePrint-Bold, Segoe Print" font-weight="700" letter-spacing="0.025em"><tspan x="0" y="0">Modalin</tspan></text>
</svg>
