<svg xmlns="http://www.w3.org/2000/svg" width="100.717" height="108.984" viewBox="0 0 100.717 108.984">
  <defs>
    <style>
      .cls-1 {
        fill: #a7e8f1;
      }

      .cls-2 {
        fill: #6bdae8;
      }

      .cls-3 {
        fill: #00b965;
      }

      .cls-4 {
        fill: #00a855;
      }

      .cls-5 {
        fill: #6fd6a2;
      }

      .cls-6 {
        fill: #92dfb7;
      }
    </style>
  </defs>
  <g id="Group_306" data-name="Group 306" transform="translate(-21 -35)">
    <g id="water" transform="translate(21 116.721)">
      <path id="Path_3" data-name="Path 3" class="cls-1" d="M17.718,405.662a8.609,8.609,0,0,1-17.218,0c0-3.892,5.768-14.5,7.862-18.216a.857.857,0,0,1,1.494,0c2.093,3.72,7.862,14.324,7.862,18.216Zm0,0" transform="translate(-0.5 -387.009)"/>
      <path id="Path_4" data-name="Path 4" class="cls-2" d="M14.132,387.447a.857.857,0,0,0-1.5,0c-.233.416-.515.921-.828,1.49,2.337,4.542,4.922,10.154,4.922,12.76a8.616,8.616,0,0,1-10.762,8.337,8.608,8.608,0,0,0,16.024-4.371c0-3.892-5.767-14.5-7.861-18.216Zm0,0" transform="translate(-4.776 -387.009)"/>
    </g>
    <g id="Pipe" transform="translate(31.78 89.254)">
      <path id="Path_1" data-name="Path 1" class="cls-3" d="M82.985,248.542l-43.67,2.912a6.658,6.658,0,0,1-3.772-.878l-8.16-4.711a2.128,2.128,0,0,0-3.192,1.843v17.906a2.127,2.127,0,0,0,3.192,1.843l8.161-4.711a6.658,6.658,0,0,1,3.771-.877l43.67,2.911Zm0,0" transform="translate(-24.191 -245.577)"/>
      <path id="Path_2" data-name="Path 2" class="cls-4" d="M66.514,264.2l-11.324.755,3.614,3.65a2.482,2.482,0,0,1-1.993,4.218L33.359,270.65a6.656,6.656,0,0,0-3.771.877l-5.4,3.117v5.534a2.128,2.128,0,0,0,3.192,1.843l8.16-4.711a6.657,6.657,0,0,1,3.772-.877L81.4,279.239Zm0,0" transform="translate(-24.19 -260.141)"/>
    </g>
    <g id="handle" transform="translate(83.382 35)">
      <path id="Path_5" data-name="Path 5" class="cls-3" d="M292,5.121l-5.5,5.5,6.383,6.382,5.5-5.5a8.482,8.482,0,0,1,14.48,6V36.988l8.869,8.87h.157V17.5A17.509,17.509,0,0,0,292,5.121Zm0,0" transform="translate(-286.5 -0.001)"/>
      <path id="Path_6" data-name="Path 6" class="cls-4" d="M397.719,7.424a17.4,17.4,0,0,0-7.681-4.478A17.513,17.513,0,0,1,398.7,18.057V44.171l3.988,3.988h.158V19.8a17.389,17.389,0,0,0-5.128-12.381Zm0,0" transform="translate(-367.455 -2.303)"/>
    </g>
    <g id="body" transform="translate(47.102 41.766)">
      <path id="Path_7" data-name="Path 7" class="cls-3" d="M193.378,75.546l-28.765,28.765a4.8,4.8,0,0,1-6.786,0L121.618,68.1a4.943,4.943,0,0,1,0-6.991l28.663-28.663a4.8,4.8,0,0,1,6.786,0l36.311,36.312a4.8,4.8,0,0,1,0,6.785Zm0,0" transform="translate(-120.17 -31.043)"/>
      <path id="Path_8" data-name="Path 8" class="cls-4" d="M234.766,32.449l-6.543,6.542,34.666,34.666a5.561,5.561,0,0,1,0,7.865l-21.684,21.684,1.107,1.106a4.8,4.8,0,0,0,6.786,0l28.765-28.765a4.8,4.8,0,0,0,0-6.786L241.552,32.449a4.8,4.8,0,0,0-6.786,0Zm0,0" transform="translate(-204.655 -31.043)"/>
    </g>
    <g id="leaft" transform="translate(68.575 61.203)">
      <path id="Path_10" data-name="Path 10" class="cls-5" d="M219.559,134.415a.907.907,0,0,0-.94.941c0,.007,0,.015,0,.023,3.065.4,7.623,1.552,10.85,4.778,4.224,4.225,4.884,10.736,4.979,13.182.961.127,1.776.181,2.356.2a.908.908,0,0,0,.941-.94c-.092-2.43-.744-8.968-4.981-13.205S221.987,134.506,219.559,134.415Zm0,0" transform="translate(-218.618 -134.414)"/>
      <path id="Path_11" data-name="Path 11" class="cls-5" d="M272.068,190.441a1.241,1.241,0,0,1-.882-.365l-13.693-13.693a1.249,1.249,0,0,1,1.766-1.766l13.693,13.693a1.248,1.248,0,0,1-.883,2.132Zm0,0" transform="translate(-250.716 -167.619)"/>
      <path id="Path_9" data-name="Path 9" class="cls-6" d="M232.763,139.4c4.237,4.237,4.889,10.776,4.981,13.2a.907.907,0,0,1-.94.94c-2.429-.092-8.967-.743-13.205-4.981s-4.889-10.776-4.981-13.2a.907.907,0,0,1,.94-.941C221.987,134.506,228.526,135.157,232.763,139.4Zm0,0" transform="translate(-218.617 -134.414)"/>
    </g>
  </g>
</svg>
